<?xml version="1.0" encoding="UTF-8" standalone="no"?>
<!-- Created with Inkscape (http://www.inkscape.org/) -->

<svg
   width="210mm"
   height="297mm"
   viewBox="0 0 210 297"
   version="1.1"
   id="svg1"
   xml:space="preserve"
   inkscape:version="1.3 (0e150ed6c4, 2023-07-21)"
   sodipodi:docname="dibujo.svg"
   xmlns:inkscape="http://www.inkscape.org/namespaces/inkscape"
   xmlns:sodipodi="http://sodipodi.sourceforge.net/DTD/sodipodi-0.dtd"
   xmlns="http://www.w3.org/2000/svg"
   xmlns:svg="http://www.w3.org/2000/svg"><sodipodi:namedview
     id="namedview1"
     pagecolor="#ffffff"
     bordercolor="#000000"
     borderopacity="0.25"
     inkscape:showpageshadow="2"
     inkscape:pageopacity="0.0"
     inkscape:pagecheckerboard="0"
     inkscape:deskcolor="#d1d1d1"
     inkscape:document-units="mm"
     inkscape:zoom="0.53354917"
     inkscape:cx="271.76502"
     inkscape:cy="711.27465"
     inkscape:window-width="1280"
     inkscape:window-height="691"
     inkscape:window-x="487"
     inkscape:window-y="236"
     inkscape:window-maximized="0"
     inkscape:current-layer="svg1" /><defs
     id="defs1" /><path
     style="display:inline;opacity:1;fill:#818181;fill-opacity:1"
     d="m 126.22795,210.4862 c -1.09874,-0.34874 -1.79094,3.16792 -1.17512,5.97173 0.14183,0.64574 0.30385,0.77928 0.94413,0.77928 1.0345,0 1.25438,-6.42619 0.23099,-6.75101 z"
     id="path204" /><path
     style="display:inline;opacity:1;fill:#818181;fill-opacity:1"
     d="m 189.44218,210.4278 c -0.43148,0.13604 -0.49557,0.97921 -0.49557,3.51762 0,3.29166 0,3.29179 0.79375,3.29179 1.03885,0 1.29313,-6.42073 0.26716,-6.74636 -0.23674,-0.0751 -0.42151,-0.10839 -0.56534,-0.063 z"
     id="path203" /><path
     style="display:inline;opacity:1;fill:#818181;fill-opacity:1"
     d="m 141.56759,210.3425 c -0.48732,0.0188 -0.51057,0.7589 -0.51057,3.45508 0,3.43958 0,3.43959 0.79375,3.43959 0.94716,0 1.30247,-6.36262 0.37517,-6.71846 -0.28184,-0.10815 -0.49592,-0.18249 -0.65835,-0.17621 z"
     id="path202" /><path
     style="display:inline;opacity:1;fill:#818181;fill-opacity:1"
     d="m 175.81097,210.3048 c -1.38471,-0.11687 -3.2355,0.66369 -3.25975,1.98851 -0.005,0.26422 -0.1326,0.7114 -0.2837,0.99374 -0.34894,0.652 0.17111,2.51762 0.93018,3.3383 0.6515,0.70438 3.105,0.85805 3.72949,0.23357 0.50926,-0.50928 0.49568,-1.73839 -0.0191,-1.73839 -0.21828,0 -0.39687,0.11905 -0.39687,0.26458 0,0.40406 -1.57467,0.31462 -2.00298,-0.11369 -0.21903,-0.21903 -0.37827,-0.89424 -0.37827,-1.6061 0,-1.63279 1.56369,-2.82857 2.24896,-1.71979 0.32137,0.51999 0.92604,0.26894 0.92604,-0.38447 0,-0.79265 -0.66313,-1.18613 -1.49397,-1.25626 z"
     id="path201" /><path
     style="display:inline;opacity:1;fill:#818181;fill-opacity:1"
     d="m 168.44502,210.2836 c -1.36714,-0.0971 -3.04633,0.91175 -3.04633,1.99005 0,0.27524 -0.10915,0.70458 -0.24288,0.95447 -0.36381,0.67978 0.25189,2.71751 1.03146,3.41323 1.19883,1.06989 4.50309,0.80674 4.50309,-0.35864 0,-0.68219 -1.18567,-0.92893 -1.75028,-0.36432 -0.40522,0.40522 -1.95389,-0.45253 -1.95389,-1.0821 0,-0.53014 0.452,-0.61782 2.66547,-0.51832 2.40706,0.10821 1.89032,-3.03238 -0.64544,-3.92224 -0.17676,-0.062 -0.3659,-0.0983 -0.5612,-0.11213 z m -0.009,1.37772 c 0.37239,0.0712 0.66715,0.31229 0.66715,0.68109 0,0.59536 -0.10584,0.66146 -1.05834,0.66146 -1.09057,0 -1.36843,-0.37771 -0.74052,-1.00562 0.30961,-0.30961 0.75932,-0.40812 1.13171,-0.33693 z"
     id="path200" /><path
     style="display:inline;opacity:1;fill:#818181;fill-opacity:1"
     d="m 92.78245,210.2806 c -0.518311,0.0894 -0.673344,1.12999 -0.673344,3.66644 0,3.28946 2e-6,3.28973 0.79375,3.28973 0.81741,0 1.306888,-6.26649 0.5271,-6.74843 -0.26117,-0.16141 -0.474735,-0.23753 -0.647506,-0.20774 z"
     id="path199" /><path
     style="display:inline;opacity:1;fill:#818181;fill-opacity:1"
     d="m 194.52663,210.2542 c -0.63906,0.0555 -1.29154,0.30564 -1.74357,0.77514 -1.38658,1.44022 -1.22819,5.12776 0.25219,5.87045 1.67829,0.84197 3.58427,0.26143 3.58427,-1.09193 0,-0.61736 -0.0703,-0.7234 -0.31729,-0.47645 -1.02741,1.02739 -2.85771,-0.005 -2.85771,-1.61231 0,-1.22371 1.74053,-2.5967 2.24896,-1.77405 0.34258,0.5543 0.92604,0.2616 0.92604,-0.46457 0,-0.87112 -1.02779,-1.31879 -2.09289,-1.22628 z"
     id="path198" /><path
     style="display:inline;opacity:1;fill:#818181;fill-opacity:1"
     d="m 112.46652,210.2482 c -0.61364,0.0503 -1.21878,0.29365 -1.71514,0.7705 -1.67812,1.61214 -1.53138,4.98278 0.2558,5.87767 1.19319,0.59747 4.00605,0.40565 4.32532,-0.29507 0.41919,-0.92007 -0.92839,-1.44563 -1.70791,-0.66611 -0.29703,0.29704 -1.09575,-0.0279 -1.90273,-0.77359 -0.56926,-0.52606 0.0565,-0.82648 1.73065,-0.83148 1.96406,-0.006 2.20451,-0.15339 2.20451,-1.35237 0,-1.50015 -1.2266,-2.55264 -2.57762,-2.71715 -0.20265,-0.0247 -0.40833,-0.0292 -0.61288,-0.0124 z m 0.23048,1.43272 c 0.85011,0 1.60402,0.74921 1.08469,1.07797 -0.42464,0.26879 -1.92278,0.3272 -2.16576,0.0842 -0.31432,-0.31432 0.4743,-1.1622 1.08107,-1.1622 z"
     id="path197" /><path
     style="display:inline;opacity:1;fill:#818181;fill-opacity:1"
     d="m 9.4221639,210.225 c -0.8969783,0.074 -1.6630146,0.43383 -1.8215942,1.04024 -0.1813998,0.69366 0.2591976,1.16191 0.6888468,0.73226 0.465929,-0.46593 2.1994525,-0.39436 2.6163775,0.108 0.48177,0.5805 -0.156665,1.03582 -1.7611325,1.25574 -1.9874162,0.2724 -2.8405996,2.40704 -1.3714926,3.43183 0.7118386,0.49655 2.3470141,0.57013 2.7915611,0.12558 0.246945,-0.24695 0.388159,-0.24695 0.635103,0 0.174625,0.17462 0.591344,0.31781 0.926042,0.31781 1.018797,0 0.934958,-5.52552 -0.09612,-6.33657 -0.682691,-0.537 -1.710615,-0.7489 -2.6075931,-0.67489 z m 1.0180261,4.17029 c 0.517122,0.0268 0.747431,0.31077 0.56844,0.77721 -0.258517,0.67371 -1.266779,1.00041 -1.825728,0.5917 -0.6610786,-0.48339 -0.362292,-1.08529 0.649056,-1.30742 0.231657,-0.0509 0.435857,-0.0704 0.608232,-0.0615 z"
     id="path196" /><path
     style="display:inline;opacity:1;fill:#818181;fill-opacity:1"
     d="m 65.648706,210.217 c -0.782701,0.0173 -1.58746,0.36435 -2.284615,1.15393 -1.178738,1.33501 -0.918306,5.33663 0.347266,5.33663 0.193689,0 0.351916,0.11905 0.351916,0.26458 0,0.94666 3.976486,0.0452 4.554244,-1.03249 1.531153,-2.85601 -0.620706,-5.77447 -2.968811,-5.72265 z m 0.168465,1.46392 c 1.314315,0 2.061755,2.57209 1.043347,3.59047 -0.481934,0.48193 -1.771124,0.47174 -2.201932,-0.0176 -0.905218,-1.02814 -0.07997,-3.5729 1.158585,-3.5729 z"
     id="path195" /><path
     style="display:inline;opacity:1;fill:#818181;fill-opacity:1"
     d="m 121.01122,210.2005 c -0.1128,0.006 -0.22265,0.0327 -0.32711,0.0832 -0.21828,0.10556 -1.05173,0.19496 -1.85209,0.19896 -1.36635,0.007 -2.32144,4.19448 -1.46554,6.42493 0.57762,1.50526 1.5987,0.17259 1.6738,-2.18437 0.13795,-4.32987 2.17299,-4.2239 2.17299,0.11318 0,2.40013 -1.1e-4,2.40037 0.76533,2.40037 1.10234,0 1.38066,-1.48624 0.91467,-4.88601 -0.16315,-1.19031 -1.09247,-2.18974 -1.88205,-2.15026 z"
     id="path194" /><path
     style="display:inline;opacity:1;fill:#818181;fill-opacity:1"
     d="m 35.213354,210.1935 c -0.148061,0.0218 -0.280563,0.076 -0.387573,0.16485 -0.209494,0.17389 -0.928643,0.27024 -1.641243,0.22014 -1.191962,-0.0838 -2.07037,4.26517 -1.278475,6.32882 0.577619,1.50526 1.598701,0.17259 1.673799,-2.18437 0.135504,-4.253 2.088693,-4.22134 2.228288,0.0362 0.123595,3.76956 1.784656,3.68431 1.792656,-0.092 0.0034,-1.61891 0.09208,-1.98963 0.583427,-2.44739 1.130812,-1.05351 1.494987,-0.47832 1.592667,2.51664 0.106075,3.25251 1.856359,3.81534 2.015381,0.64802 0.209635,-4.17542 -1.151893,-5.98334 -3.569808,-4.73976 -1.012337,0.52066 -1.155288,0.53556 -1.530139,0.16071 -0.451371,-0.45137 -1.034793,-0.67714 -1.47898,-0.61185 z"
     id="path193" /><path
     style="display:inline;opacity:1;fill:#818181;fill-opacity:1"
     d="m -4.6157389,210.1754 c -0.988814,0.11475 -2.4939047,0.89075 -2.4939047,1.4857 0,0.15591 -0.1190635,0.2837 -0.2645833,0.2837 -0.1511896,0 -0.2645833,0.79374 -0.2645833,1.85208 0,1.05833 0.1133937,1.85209 0.2645833,1.85209 0.1455198,0 0.2645833,0.18978 0.2645833,0.42168 0,0.23191 0.2381173,0.48355 0.5291667,0.55965 0.2910394,0.0761 0.5291667,0.24353 0.5291667,0.37207 0,0.44304 3.2287529,0.26727 3.7496419,-0.20412 1.028568,-0.93089 -0.026744,-1.60313 -1.3797607,-0.87902 -0.544959,0.29165 -1.423378,-0.0567 -2.0112468,-0.79788 -0.448759,-0.56578 0.016926,-0.78617 1.6701823,-0.79117 1.968376,-0.006 2.2045166,-0.15215 2.2045166,-1.36477 0,-1.18592 -0.6421504,-2.34353 -1.300179,-2.34353 -0.2451996,0 -0.5852497,-0.13928 -0.7555095,-0.30954 -0.1399646,-0.13996 -0.4124689,-0.17519 -0.7420735,-0.13694 z m -0.1979208,1.50552 c 0.7371486,0 1.526811,0.65277 1.2774414,1.05626 -0.2053096,0.33218 -1.9010212,0.35301 -2.1032308,0.0258 -0.2882894,-0.46647 0.1813808,-1.0821 0.8257894,-1.0821 z"
     id="path192" /><path
     style="display:inline;opacity:1;fill:#818181;fill-opacity:1"
     d="m 99.053385,210.1558 c -0.145676,0.0246 -0.258737,0.0867 -0.322977,0.19069 -0.12873,0.20825 -0.666894,0.29311 -1.492932,0.23461 -1.291708,-0.0915 -1.291809,-0.0915 -1.365809,3.28197 -0.07405,3.37342 -0.07404,3.37344 0.727605,3.37344 0.801708,0 0.801635,-1e-5 0.805635,-2.18282 0.0044,-2.35873 0.08266,-2.60184 0.994255,-3.08198 1.059448,-0.55802 1.382861,0.11171 1.382861,2.86443 0,2.40013 7e-6,2.40037 0.793747,2.40037 1.07943,0 1.26474,-5.48282 0.21601,-6.39238 -0.57238,-0.49642 -1.301363,-0.76205 -1.738395,-0.68833 z"
     id="path191" /><path
     style="display:inline;opacity:1;fill:#818181;fill-opacity:1"
     d="m 138.71763,210.1429 c -0.14076,0.0212 -0.29181,0.0925 -0.44442,0.21911 -0.22409,0.18599 -0.76749,0.2717 -1.25315,0.1974 -1.49011,-0.22785 -1.51929,-0.16673 -1.51929,3.21531 0,1.70987 0.0849,3.19377 0.18862,3.29747 0.8759,0.8759 1.53196,0.0188 1.66347,-2.17299 0.13857,-2.30951 0.49624,-2.95434 1.63814,-2.95434 0.35648,0 0.47852,-0.20461 0.47852,-0.80202 0,-0.67876 -0.32961,-1.06369 -0.75189,-0.99994 z"
     id="path190" /><path
     style="display:inline;opacity:1;fill:#818181;fill-opacity:1"
     d="m 105.97028,210.1379 c -1.56887,-0.15972 -3.38193,1.666 -2.80552,3.19309 0.2199,0.58247 0.22813,0.92065 0.0289,1.16065 -0.15461,0.18624 -0.24857,0.73102 -0.20877,1.21078 0.0398,0.47977 -0.0247,1.20867 -0.14366,1.62006 -0.26636,0.92109 0.22418,1.95146 1.01337,2.12855 1.05318,0.23633 3.83461,-0.0302 4.2075,-0.40308 1.70122,-1.70122 0.82049,-3.39927 -1.76269,-3.39927 -1.16735,0 -1.49034,-0.0889 -1.49034,-0.40876 0,-0.22467 0.14883,-0.38055 0.33073,-0.34675 1.41926,0.264 2.60777,-0.54647 3.06286,-2.08877 0.18249,-0.61845 0.44633,-1.12447 0.58601,-1.12447 0.13968,0 0.25373,-0.23813 0.25373,-0.52917 0,-0.43026 -0.17657,-0.52917 -0.94361,-0.52917 -0.51889,0 -1.18433,-0.12911 -1.47898,-0.2868 -0.20648,-0.11051 -0.42545,-0.17407 -0.64957,-0.19689 z m -0.39585,1.54302 c 0.8323,0 1.13226,0.42948 0.90538,1.29707 -0.08,0.30573 -0.36001,0.55501 -0.62426,0.55501 -0.64218,0 -1.3774,-0.76777 -1.19372,-1.24644 0.0811,-0.21142 0.14728,-0.43416 0.14728,-0.49506 0,-0.0608 0.34433,-0.11058 0.76532,-0.11058 z m 0.37414,5.04549 c 0.5193,0.10378 0.9772,0.51284 0.9772,1.09244 0,0.37985 -0.21586,0.47646 -1.0666,0.47646 -1.16457,0 -1.61316,-0.51202 -1.04696,-1.19424 0.16678,-0.20097 0.38188,-0.32066 0.61133,-0.37156 0.17208,-0.0382 0.35193,-0.0377 0.52503,-0.003 z"
     id="path189" /><path
     style="display:inline;opacity:1;fill:#818181;fill-opacity:1"
     d="m 54.255603,210.1369 c -0.196455,0.0235 -0.403727,0.0919 -0.620117,0.20774 -0.330975,0.17712 -1.126565,0.28186 -1.767851,0.23306 -1.165977,-0.0887 -1.165538,-0.0887 -1.239718,3.30212 -0.07418,3.3908 -0.07418,3.39079 0.79375,3.30729 0.867929,-0.0835 0.867742,-0.0832 0.943612,-2.46445 0.135504,-4.253 2.088693,-4.22134 2.228288,0.0362 0.106881,3.25973 1.601696,3.76615 1.742012,0.59014 0.147759,-3.34442 -0.70479,-5.37682 -2.079976,-5.21208 z"
     id="path188" /><path
     style="display:inline;opacity:1;fill:#818181;fill-opacity:1"
     d="m 201.10969,210.1229 c -0.97136,-0.022 -2.6128,0.53219 -2.79931,1.11983 -0.21658,0.68242 0.28871,1.14477 0.79323,0.72606 0.66141,-0.54892 2.39615,-0.25928 2.49235,0.41599 0.0866,0.60815 -0.094,0.70395 -1.90531,1.01079 -1.72614,0.29241 -2.44598,2.16234 -1.28519,3.33933 0.5228,0.53011 2.43496,0.67236 2.89233,0.21498 0.20536,-0.20531 0.43506,-0.19344 0.81184,0.0419 1.07829,0.6734 1.38951,0.18141 1.38751,-2.1947 -0.002,-2.73851 -0.36447,-4.17546 -1.05368,-4.17546 -0.27562,0 -0.57466,-0.11906 -0.66456,-0.26458 -0.0961,-0.15547 -0.34543,-0.22677 -0.66921,-0.2341 z m 0.15709,4.20369 c 0.67549,0 0.44565,1.2081 -0.29403,1.54512 -0.80303,0.36591 -0.70494,0.37355 -1.11208,-0.0889 -0.6288,-0.71419 0.0877,-1.45624 1.40611,-1.45624 z"
     id="path187" /><path
     style="display:inline;opacity:1;fill:#818181;fill-opacity:1"
     d="m 26.793713,210.109 c -0.273741,0.0281 -0.533409,0.10322 -0.767911,0.22841 -0.252687,0.1349 -0.667763,0.30981 -0.922425,0.38861 -0.281289,0.0871 -0.463021,0.4065 -0.463021,0.81339 0,0.69378 0.474531,0.883 0.970484,0.38705 0.52749,-0.52749 2.326587,-0.18651 2.418457,0.45837 0.0869,0.61001 -0.09184,0.70379 -1.933732,1.01544 -1.742565,0.29485 -2.427764,2.08579 -1.282093,3.35174 0.507519,0.56081 2.445424,0.67015 2.949174,0.1664 0.246944,-0.24695 0.388159,-0.24695 0.635104,0 0.174625,0.17462 0.531812,0.31781 0.79375,0.31781 0.608389,0 0.731307,-5.62522 0.134875,-6.17069 -0.764765,-0.69942 -1.711436,-1.04076 -2.532662,-0.95653 z m 0.906405,4.21759 c 0.551538,0 0.479965,1.22556 -0.0832,1.4242 -0.254662,0.0898 -0.582083,0.21804 -0.727604,0.28474 -0.298523,0.13689 -0.926042,-0.48005 -0.926042,-0.91054 0,-0.29704 1.090584,-0.7984 1.736845,-0.7984 z"
     id="path186" /><path
     style="display:inline;opacity:1;fill:#818181;fill-opacity:1"
     d="m 17.772559,210.105 c -0.286812,-0.0216 -0.557484,0.0653 -0.684196,0.27027 -0.107511,0.17394 -0.572844,0.21603 -1.206128,0.10904 -1.031179,-0.17422 -1.031462,-0.17415 -1.031462,3.28869 0,3.46282 2e-6,3.46284 0.79375,3.46284 0.793748,0 0.79375,-3e-5 0.79375,-2.15181 0,-2.31358 0.551424,-3.33436 1.646928,-3.04788 0.59794,0.15636 0.940499,-0.98047 0.467155,-1.55081 -0.189935,-0.22886 -0.492987,-0.35875 -0.779797,-0.38034 z"
     id="path185" /><path
     style="display:inline;opacity:1;fill:#818181;fill-opacity:1"
     d="m 147.01015,210.09276 c -0.49215,0 -0.96844,0.11906 -1.05834,0.26458 -0.0899,0.14552 -0.45403,0.26458 -0.80925,0.26458 -0.54121,0 -0.64595,0.12859 -0.64595,0.79375 0,0.78515 0.56744,1.10941 0.92604,0.52917 0.31419,-0.50836 2.17425,-0.31401 2.31975,0.24236 0.16761,0.64096 -0.26302,1.08056 -1.05833,1.08056 -2.4074,0 -3.34791,1.86488 -1.82108,3.61114 0.38658,0.44212 2.71488,0.46362 2.91869,0.0269 0.12347,-0.26458 0.18555,-0.26458 0.30902,0 0.72815,1.56031 1.69757,0.26821 1.69757,-2.2624 0,-2.74825 -0.34982,-4.01639 -1.10897,-4.01939 -0.24607,-0.001 -0.52092,-0.12113 -0.61082,-0.26665 -0.0899,-0.14552 -0.56618,-0.26458 -1.05833,-0.26458 z m 0.44028,4.26533 c 0.5687,0.0495 0.65575,0.47364 0.11782,1.09968 -0.34067,0.39646 -0.66508,0.7112 -0.72088,0.6997 -0.99454,-0.20466 -1.0841,-1.47598 -0.12093,-1.71773 0.29139,-0.0731 0.53442,-0.0981 0.72399,-0.0816 z"
     id="path184" /><path
     style="display:inline;opacity:1;fill:#818181;fill-opacity:1"
     d="m 84.675968,210.08036 c -0.33572,-0.0344 -0.637801,0.0399 -0.854211,0.25632 -0.15672,0.15673 -0.477952,0.28525 -0.713652,0.28525 -1.730276,0 -2.429999,4.63306 -0.898653,5.95003 0.865018,0.74391 3.925188,0.97684 4.555278,0.34675 0.967788,-0.96777 -0.278501,-1.72458 -1.546159,-0.93897 -0.34721,0.21514 -0.600137,0.2383 -0.723987,0.0661 -0.1047,-0.14552 -0.428803,-0.39647 -0.719853,-0.55759 -1.258806,-0.69687 -0.802677,-1.1622 1.138949,-1.1622 2.220556,0 2.525321,-0.25382 2.264461,-1.88516 -0.187695,-1.17377 -1.49501,-2.2574 -2.502173,-2.36058 z m -0.453202,1.63316 c 0.564325,-0.0558 1.148015,0.15853 1.224215,0.69505 0.0771,0.54282 -0.02201,0.59531 -1.124479,0.59531 -0.85054,0 -1.209229,-0.10843 -1.209229,-0.36483 0,-0.54407 0.54517,-0.8697 1.109493,-0.92553 z"
     id="path183" /><path
     style="display:inline;opacity:1;fill:#818181;fill-opacity:1"
     d="m 157.74954,210.07985 c -0.16103,-0.0253 -0.31467,-0.0251 -0.45527,0.005 -0.16066,0.0346 -0.30444,0.10859 -0.42323,0.22738 -0.17023,0.17026 -0.5175,0.30954 -0.77204,0.30954 -0.94675,0 -1.81281,1.62324 -1.81281,3.39824 0,0.89577 0.11129,1.62885 0.24701,1.62885 0.13571,0 0.32205,0.23811 0.41445,0.52916 0.0924,0.29104 0.33877,0.52917 0.54725,0.52917 0.20847,0 0.37879,0.11905 0.37879,0.26458 0,0.38202 3.5288,0.33402 3.91604,-0.0532 0.60091,-0.60091 0.37798,-1.26969 -0.42323,-1.26969 -0.40746,0 -0.85924,0.11819 -1.00356,0.26251 -0.37058,0.37057 -1.89417,-0.24581 -2.04638,-0.82785 -0.17626,-0.67404 0.0114,-0.75758 1.69653,-0.75758 2.12727,0 2.35852,-0.13248 2.35852,-1.34927 0,-1.28141 -1.49483,-2.71965 -2.62207,-2.89698 z m -0.30747,1.60107 c 0.74192,0 1.241,0.58001 0.93069,1.0821 -0.16799,0.27177 -1.79242,0.32992 -2.04897,0.0734 -0.37209,-0.37209 0.38621,-1.15548 1.11828,-1.15548 z"
     id="path182" /><path
     style="display:inline;opacity:1;fill:#818181;fill-opacity:1"
     d="m 46.359961,210.07985 c -0.161033,-0.0253 -0.314676,-0.0251 -0.455269,0.005 -0.160678,0.0346 -0.304443,0.10859 -0.42323,0.22738 -0.170255,0.17026 -0.469299,0.30954 -0.664559,0.30954 -2.177124,0 -2.580745,5.22501 -0.484725,6.27455 1.591644,0.797 4.867273,0.15582 4.471561,-0.87539 -0.163423,-0.42587 -1.437801,-0.50214 -1.830379,-0.10956 -0.331168,0.33117 -1.887063,-0.22008 -2.086177,-0.73897 -0.251781,-0.65613 0.132584,-0.84646 1.707389,-0.84646 2.157739,0 2.387451,-0.12978 2.387451,-1.34927 0,-1.28141 -1.494835,-2.71965 -2.622062,-2.89698 z m -0.392224,1.60107 c 0.893136,0 1.674157,0.73917 1.138948,1.07797 -0.430008,0.27226 -1.924475,0.32551 -2.172477,0.0775 -0.34486,-0.34487 0.380415,-1.15548 1.033529,-1.15548 z"
     id="path181" /><path
     style="display:inline;opacity:1;fill:#818181;fill-opacity:1"
     d="m 3.5093465,210.05715 c -0.2402019,0.0214 -0.4810469,0.12064 -0.7136515,0.31367 -0.2481996,0.20595 -0.8060678,0.26472 -1.5497762,0.16279 -0.93283817,-0.12786 -1.19447813,-0.0734 -1.32911786,0.2775 -0.19392961,0.50542 -0.16170286,8.30361 0.03565674,8.62324 0.52181896,0.84512 1.53975572,0.003 1.61695552,-1.3379 0.06415,-1.11427 0.5813599,-2.11466 0.5813599,-1.12448 0,1.06248 2.7727506,0.0876 3.5057292,-1.23248 1.1983101,-2.15815 -0.4657417,-5.83211 -2.1471558,-5.68234 z m -0.7503418,1.80757 c 1.0226789,-0.0653 1.7143769,1.30032 1.2298991,2.76831 -0.6478886,1.96312 -2.3672974,1.2031 -2.3672974,-1.04645 0,-1.13099 0.084537,-1.33067 0.6810954,-1.60248 0.157136,-0.0716 0.310206,-0.11005 0.4563029,-0.11938 z"
     id="path180" /><path
     style="display:inline;opacity:1;fill:#818181;fill-opacity:1"
     d="m 131.54132,210.04375 c -0.3352,-0.035 -0.64248,0.0472 -0.87436,0.27906 -0.16455,0.16456 -0.4919,0.2992 -0.7276,0.2992 -1.75775,0 -2.38858,4.41307 -0.8506,5.95106 0.74518,0.74517 3.86821,0.98472 4.50722,0.34572 0.96779,-0.96777 -0.2785,-1.72458 -1.54616,-0.93897 -0.34721,0.21514 -0.60064,0.2383 -0.7245,0.0661 -0.1047,-0.14552 -0.42829,-0.39672 -0.71934,-0.5581 -1.07618,-0.59674 -0.62057,-1.02551 1.18029,-1.11001 2.15939,-0.10133 2.47754,-0.34775 2.24224,-1.74047 -0.22459,-1.3293 -1.48154,-2.48851 -2.48719,-2.59364 z m -0.13125,1.67577 c 0.43394,0.0754 0.81594,0.32117 0.86816,0.68885 0.0756,0.53242 -0.0276,0.59531 -0.97668,0.59531 -1.17998,0 -1.57231,-0.34824 -1.07177,-0.95136 0.26011,-0.31342 0.74635,-0.40819 1.18029,-0.3328 z"
     id="path179" /><path
     style="display:inline;opacity:1;fill:#818181;fill-opacity:1"
     d="m 186.82736,210.04075 c -0.0964,-0.03 -0.19803,-0.03 -0.29766,0.004 -0.13284,0.0455 -0.26201,0.15154 -0.37052,0.32712 -0.095,0.15383 -0.66752,0.24313 -1.27227,0.19843 -1.09961,-0.0812 -1.09958,-0.0811 -1.17358,3.29231 -0.074,3.37342 -0.074,3.37344 0.72761,3.37344 0.80165,0 0.8015,-2.8e-4 0.8015,-2.06706 0,-2.23149 0.49222,-3.22461 1.59784,-3.22461 0.41657,0 0.51883,-0.18252 0.51883,-0.92604 0,-0.52655 -0.24244,-0.88762 -0.53175,-0.97772 z"
     id="path178" /><path
     style="display:inline;opacity:1;fill:#818181;fill-opacity:1"
     d="m 59.227909,208.78553 c -0.369321,-0.0365 -0.720886,0.11047 -0.720886,0.47387 0,0.80511 -0.282187,1.36219 -0.68988,1.36219 -0.202712,0 -0.368453,0.23813 -0.368453,0.52917 0,0.29104 0.165741,0.52917 0.368453,0.52917 0.526949,0 0.68988,0.60068 0.68988,2.54454 0,1.12619 0.145526,1.92941 0.427364,2.35955 0.700007,1.06835 2.747636,0.96281 2.747636,-0.14159 0,-0.5452 -0.129898,-0.79375 -0.415478,-0.79375 -0.748532,0 -1.172022,-0.7167 -1.172022,-1.98438 0,-1.26767 0.42349,-1.98437 1.172022,-1.98437 0.239383,0 0.415478,-0.2245 0.415478,-0.52917 0,-0.30467 -0.176095,-0.52917 -0.415478,-0.52917 -0.531539,0 -1.087487,-0.55459 -1.211813,-1.20923 -0.07034,-0.37035 -0.4575,-0.59037 -0.826823,-0.62683 z"
     id="path177" /><path
     style="display:inline;opacity:1;fill:#818181;fill-opacity:1"
     d="m 179.39215,208.72193 c -0.14196,0.0524 -0.23513,0.18233 -0.23513,0.40876 0,0.19865 -0.23812,0.66353 -0.52916,1.03353 -0.6598,0.83879 -0.66191,1.13026 -0.0145,1.82521 0.41287,0.44316 0.51418,0.93659 0.51418,2.49804 0,1.22037 0.12906,2.09456 0.34571,2.34507 0.65134,0.75312 2.70946,0.41896 2.81017,-0.4563 0.0752,-0.6538 0.001,-0.7276 -0.72761,-0.7276 -0.81133,0 -0.81132,0 -0.81132,-1.98438 0,-1.98437 0,-1.98437 0.79375,-1.98437 0.8468,0 1.21877,-1.02291 0.39688,-1.09141 -0.21828,-0.0182 -0.54571,-0.0479 -0.72761,-0.0661 -0.18191,-0.0182 -0.37213,-0.33073 -0.42323,-0.69453 -0.10142,-0.72274 -0.96627,-1.26303 -1.39216,-1.10587 z"
     id="path176" /><path
     style="display:inline;opacity:1;fill:#818181;fill-opacity:1"
     d="m 20.642151,208.72193 c -0.141964,0.0524 -0.235128,0.18233 -0.235128,0.40876 0,0.19865 -0.238126,0.66353 -0.529167,1.03353 -0.659792,0.83879 -0.661907,1.13026 -0.01447,1.82521 0.412867,0.44316 0.514181,0.93659 0.514181,2.49804 0,1.22037 0.129057,2.09456 0.345715,2.34507 0.651334,0.75312 2.709454,0.41896 2.810164,-0.4563 0.07522,-0.6538 0.0014,-0.7276 -0.727604,-0.7276 -0.811322,0 -0.81132,0 -0.81132,-1.98438 0,-1.98437 2e-6,-1.98437 0.79375,-1.98437 0.846793,0 1.218763,-1.02291 0.396875,-1.09141 -0.218281,-0.0182 -0.545703,-0.0479 -0.727604,-0.0661 -0.181901,-0.0182 -0.37218,-0.33073 -0.42323,-0.69453 -0.101419,-0.72274 -0.966272,-1.26303 -1.392163,-1.10587 z"
     id="path175" /><path
     style="display:inline;opacity:1;fill:#818181;fill-opacity:1"
     d="m 92.714754,207.82792 c -0.21142,0.0811 -0.43416,0.1478 -0.49506,0.1478 -0.06085,0 -0.110588,0.35719 -0.110588,0.79375 0,0.9919 1.416312,1.21293 1.665532,0.25993 0.16661,-0.6371 -0.515514,-1.41037 -1.059884,-1.20148 z"
     id="path174" /><path
     style="display:inline;opacity:1;fill:#818181;fill-opacity:1"
     d="m 125.94735,207.82592 c -0.18397,0.0103 -0.39672,0.0598 -0.6351,0.15038 -0.73101,0.27793 -0.82569,0.62251 -0.32866,1.19838 0.55481,0.64282 1.64076,0.3683 1.73426,-0.43822 0.0719,-0.61997 -0.21859,-0.94136 -0.7705,-0.91054 z"
     id="path173" /><path
     style="display:inline;opacity:1;fill:#818181;fill-opacity:1"
     d="m 189.80547,207.82092 c -0.1623,-0.009 -0.35154,0.0146 -0.56844,0.0713 -0.56641,0.14811 -0.67988,0.50787 -0.39429,1.25212 0.31294,0.81549 1.69137,0.53292 1.69137,-0.34675 0,-0.62429 -0.24174,-0.94904 -0.72864,-0.97668 z"
     id="path172" /><path
     style="display:inline;opacity:1;fill:#818181;fill-opacity:1"
     d="m 169.25323,207.44626 c -0.67582,0 -0.95144,0.1354 -1.07642,0.52917 -0.0924,0.29104 -0.27872,0.52917 -0.41444,0.52917 -0.13571,0 -0.24701,0.23811 -0.24701,0.52916 0,0.8758 1.0871,0.65871 1.91823,-0.38292 0.92239,-1.15605 0.91536,-1.20458 -0.18036,-1.20458 z"
     id="path171" /><path
     style="display:inline;opacity:1;fill:#818181;fill-opacity:1"
     d="m 162.75286,207.44626 c -0.79375,0 -0.79375,2e-5 -0.79375,4.89479 0,4.89479 0,4.8948 0.79375,4.8948 0.79375,0 0.79375,-1e-5 0.79375,-4.8948 0,-4.89477 0,-4.89479 -0.79375,-4.89479 z"
     id="path170" /><path
     style="display:inline;opacity:1;fill:#818181;fill-opacity:1"
     d="m 142.7949,207.44626 c -0.67584,0 -0.95144,0.1354 -1.07642,0.52917 -0.0924,0.29104 -0.27873,0.52917 -0.41444,0.52917 -0.13572,0 -0.24702,0.23811 -0.24702,0.52916 0,0.79063 0.77371,0.65228 1.77354,-0.31677 1.10037,-1.0665 1.09466,-1.27073 -0.0357,-1.27073 z"
     id="path169" /><path
     style="display:inline;opacity:1;fill:#818181;fill-opacity:1"
     d="m 79.018433,207.44626 c -0.932008,0 -0.932243,0 -0.932243,1.5875 0,1.66775 -0.229201,1.90787 -1.282609,1.34411 -0.56866,-0.30434 -2.421558,0.23501 -2.421558,0.70486 0,0.18267 -0.106448,0.33228 -0.236678,0.33228 -0.19592,0 -0.523572,1.47851 -0.557072,2.51354 -0.02732,0.84301 0.413553,2.15811 0.897103,2.67633 0.637918,0.68365 2.216695,0.83746 3.083533,0.30024 0.432028,-0.2678 0.575619,-0.26324 0.753959,0.0232 0.12115,0.19458 0.504279,0.31368 0.851627,0.26458 1.235278,-0.17466 1.082024,-9.74669 -0.156062,-9.74669 z m -2.456698,4.37196 c 1.127309,-0.0683 1.976197,1.6759 1.224215,3.02203 -0.43277,0.77471 -1.514436,1.00099 -2.014864,0.42117 -0.61651,-0.7143 -0.420311,-2.91413 0.294039,-3.29644 0.168533,-0.0902 0.335566,-0.137 0.49661,-0.14676 z"
     id="path168" /><path
     style="display:inline;opacity:1;fill:#818181;fill-opacity:1"
     d="m -10.284644,207.44626 c -0.793748,0 -0.79375,0 -0.79375,1.5875 0,1.41111 -0.0588,1.5875 -0.529166,1.5875 -0.29104,0 -0.529167,-0.11906 -0.529167,-0.26458 0,-0.14552 -0.231204,-0.26458 -0.513664,-0.26458 -0.282448,0 -0.587061,0.11906 -0.676961,0.26458 -0.08994,0.14552 -0.364737,0.26521 -0.610815,0.26613 -1.548048,0.006 -1.901285,4.6276 -0.478007,6.25543 0.347488,0.39746 2.808614,0.47896 2.808614,0.093 0,-0.14553 0.238128,-0.26458 0.529166,-0.26458 0.29104,0 0.529167,0.11905 0.529167,0.26458 0,0.14552 0.238127,0.26459 0.529167,0.26459 0.5100683,0 0.5291664,-0.1764 0.5291664,-4.8948 0,-4.89477 -1.3e-6,-4.89479 -0.7937504,-4.89479 z m -2.228804,4.38226 c 0.177788,-0.0535 0.37087,0.017 0.705383,0.17363 0.841888,0.39422 1.073745,2.54725 0.351917,3.26905 -1.504738,1.50474 -3.053854,-1.15758 -1.671216,-2.87217 0.27387,-0.33962 0.436127,-0.51704 0.613916,-0.57051 z"
     id="path167" /><path
     style="display:inline;opacity:1;fill:#4575c0;fill-opacity:1"
     d="m 46.17961,169.03672 c -0.700228,-0.0662 -3.515771,1.13054 -3.768245,1.6986 -0.04851,0.10914 -0.316398,0.19844 -0.595313,0.19844 -0.278913,0 -0.506946,0.11907 -0.506946,0.26459 0,0.14552 -0.238127,0.26458 -0.529166,0.26458 -0.291042,0 -0.529167,0.11905 -0.529167,0.26458 0,0.14552 -0.208359,0.27311 -0.463021,0.28371 -0.254659,0.0106 -0.820208,0.24107 -1.256771,0.51211 -0.43656,0.27104 -1.478361,0.82782 -2.315104,1.23713 -1.526804,0.74687 -1.747682,0.97094 -1.256771,1.27434 0.65919,0.4074 0.239805,6.28118 -0.561722,7.86774 -0.127658,0.25269 -0.232028,0.63964 -0.232028,0.8599 0,0.22025 -0.119062,0.40049 -0.264583,0.40049 -0.145521,0 -0.264583,0.15591 -0.264583,0.34675 0,0.19084 -0.238125,0.60279 -0.529167,0.91519 -0.291042,0.31239 -0.529167,0.63432 -0.529167,0.71572 0,0.17421 -1.841353,1.99109 -2.017964,1.99109 -0.06635,0 -0.376451,0.23813 -0.688847,0.52917 -0.312397,0.29104 -0.723831,0.52916 -0.914673,0.52916 -0.190841,0 -0.347266,0.11907 -0.347266,0.26459 0,0.14552 -0.238127,0.26458 -0.529166,0.26458 -0.291042,0 -0.529167,0.11905 -0.529167,0.26458 0,0.14552 -0.350273,0.26459 -0.778247,0.26459 -0.427974,0 -0.851605,0.11906 -0.941545,0.26458 -0.09289,0.15031 -1.413748,0.26458 -3.058211,0.26458 -1.753475,0 -2.894914,-0.10431 -2.894914,-0.26458 0,-0.14552 -0.350272,-0.26458 -0.778247,-0.26458 -0.427972,0 -0.851604,-0.11907 -0.941544,-0.26459 -0.08994,-0.14553 -0.39451,-0.26458 -0.676961,-0.26458 -0.282454,0 -0.513664,-0.11906 -0.513664,-0.26458 0,-0.14552 -0.170775,-0.26459 -0.379305,-0.26459 -0.20853,0 -1.180789,-0.79053 -2.161109,-1.75648 -1.473902,-1.4521 -1.855131,-1.70404 -2.200899,-1.45417 -0.229976,0.16619 -1.072907,0.6243 -1.873271,1.01802 -0.8003679,0.39372 -1.4950746,0.81001 -1.5435746,0.92501 -0.04851,0.11498 -0.3163931,0.20929 -0.5953125,0.20929 -0.2789094,0 -0.5069458,0.11905 -0.5069458,0.26458 0,0.14552 -0.2381271,0.26459 -0.5291667,0.26459 -0.2910394,0 -0.5291666,0.11906 -0.5291666,0.26458 0,0.14552 -0.2381273,0.26458 -0.5291667,0.26458 -0.2910494,0 -0.5291667,0.11907 -0.5291667,0.26459 0,0.14552 -0.2381272,0.26458 -0.5291666,0.26458 -0.2910394,0 -0.5291667,0.11905 -0.5291667,0.26458 0,0.14552 -0.2381271,0.26459 -0.5291667,0.26459 -0.2910394,0 -0.5291666,0.11906 -0.5291666,0.26458 0,0.14552 -0.2140004,0.26458 -0.47594,0.26458 -0.2619294,0 -0.5893645,0.10166 -0.7276041,0.22583 -0.2628296,0.23609 -4.3113965,2.40279 -8.5622681,4.58266 -1.3693972,0.70224 -2.6493212,1.27693 -2.8442708,1.27693 -0.1949496,0 -0.3545004,0.11905 -0.3545004,0.26458 0,0.14552 -0.2280262,0.26459 -0.5069458,0.26459 -0.2789096,0 -0.5468126,0.0938 -0.5953126,0.20825 -0.04851,0.11449 -0.778378,0.54215 -1.621606,0.95085 -1.453858,0.70468 -1.308439,2.01338 0.223759,2.01538 0.152788,1.7e-4 0.425838,0.14936 0.607198,0.33124 0.18136,0.1819 0.890093,0.46532 1.5745806,0.62994 4.3949035,1.2378 35.2051014,1.0575 55.2873124,0.83474 16.177823,-0.17945 14.977849,1.18252 14.700498,-1.14263 -0.08058,-0.67558 0.03198,-3.48719 -0.04868,-4.50583 -0.08066,-1.01863 0.365659,-2.33816 0.23436,-2.6292 -0.1313,-0.29104 -0.304313,-1.30309 -0.384473,-2.24895 -0.08016,-0.94589 -0.267869,-2.67229 -0.417545,-3.83646 -0.149675,-1.16417 -0.374167,-2.9501 -0.498678,-3.96875 -0.124512,-1.01865 -0.357667,-2.50695 -0.518314,-3.30729 -0.160647,-0.80037 -0.384045,-2.28866 -0.496094,-3.3073 -0.203724,-1.85208 -0.20361,-1.85208 -1.923397,-1.93218 -0.945884,-0.0441 -1.832694,-0.1929 -1.970939,-0.33073 -0.138245,-0.13784 -0.584729,-0.25063 -0.992188,-0.25063 -0.407456,0 -0.74104,-0.0951 -0.74104,-0.21135 0,-0.11628 -0.426995,-0.36581 -0.948779,-0.55449 -1.521368,-0.55014 -5.135213,-4.06046 -5.13612,-4.98885 -6.6e-5,-0.0665 -0.05706,-0.10163 -0.157097,-0.1111 z"
     id="path166"
     sodipodi:nodetypes="csssssssssssssssssssssssssssssscssssssssssssssssssssssscssssssssscssssscc" /><path
     style="display:inline;opacity:1;fill:#4575c0;fill-opacity:1"
     d="m -16.421737,140.2421 c -0.11705,0 -0.207538,11.99557 -0.201538,26.65677 0.01153,27.41376 0.0447,28.36651 1.048515,29.89791 0.40802,0.62246 0.7922,0.78283 0.7922,0.33073 0,-0.14553 0.238118,-0.26458 0.529166,-0.26458 0.29104,0 0.529167,-0.11906 0.529167,-0.26458 0,-0.14552 0.238127,-0.26459 0.529167,-0.26459 0.291038,0 0.529166,-0.11906 0.529166,-0.26458 0,-0.14552 0.238127,-0.26458 0.529167,-0.26458 0.29104,0 0.529167,-0.11907 0.529167,-0.26459 0,-0.14553 0.238118,-0.26458 0.529166,-0.26458 0.29104,0 0.529167,-0.11906 0.529167,-0.26458 0,-0.14552 0.238127,-0.26459 0.529167,-0.26459 0.2910387,0 0.5291664,-0.10219 0.5291664,-0.22686 0,-0.12467 0.7737369,-0.57116 1.7192749,-0.99218 0.9455282,-0.42104 1.7194417,-0.85463 1.7197917,-0.96377 3.4e-4,-0.10913 0.238634,-0.19844 0.5296834,-0.19844 0.2910396,0 0.5291667,-0.11906 0.5291667,-0.26458 0,-0.14552 0.2381273,-0.26458 0.5291667,-0.26458 0.2910394,0 0.5291666,-0.11907 0.5291666,-0.26459 0,-0.14553 0.2381273,-0.26458 0.5291667,-0.26458 0.2910394,0 0.5291667,-0.11906 0.5291667,-0.26458 0,-0.14552 0.2381172,-0.26459 0.5291666,-0.26459 0.2910396,0 0.5291667,-0.11906 0.5291667,-0.26458 0,-0.14552 0.1802328,-0.26458 0.4004924,-0.26458 0.3672592,0 1.40015491,-0.47773 1.71617428,-0.79375 0.0727599,-0.0728 0.87642932,-0.48154 1.78593752,-0.90848 0.9094982,-0.42693 1.6536458,-0.87342 1.6536458,-0.99218 0,-0.11874 0.1736366,-0.21601 0.3855062,-0.21601 0.2118796,0 0.9560172,-0.33237 1.6536458,-0.73846 0.6976286,-0.40609 2.1899457,-1.18965 3.3165935,-1.74149 2.5449184,-1.24653 2.6122714,-1.41311 1.4877644,-3.668 -0.319565,-0.64081 -0.288978,-5.68995 0.03566,-5.89059 0.145521,-0.0899 0.264583,-0.38705 0.264583,-0.65991 0,-0.66438 1.331331,-3.70572 1.622123,-3.70572 0.555541,0 0.09954,-0.65132 -1.754415,-2.50527 -1.0914023,-1.09141 -1.9843746,-2.04765 -1.9843746,-2.12545 0,-0.0778 -0.7714358,-0.91355 -1.714624,-1.85674 -1.6352966,-1.63529 -2.254126,-2.03306 -2.254126,-1.45004 0,0.14552 -0.2381272,0.26459 -0.5291666,0.26459 -0.2910394,0 -0.5291667,0.11906 -0.5291667,0.26458 0,0.14552 -0.2381271,0.26458 -0.5291667,0.26458 -0.2910394,0 -0.5291666,0.11907 -0.5291666,0.26459 0,0.14552 -0.357181,0.26458 -0.79375,0.26458 -0.4365592,0 -0.79375,0.11905 -0.79375,0.26458 0,0.16105 -1.19062202,0.26459 -3.0427084,0.26459 -1.8520762,0 -3.0427083,-0.10354 -3.0427083,-0.26459 0,-0.14553 -0.3571908,-0.26458 -0.79375,-0.26458 -0.4365692,0 -0.79375,-0.11906 -0.79375,-0.26458 0,-0.14552 -0.2976591,-0.26459 -0.6614583,-0.26459 -0.3637994,0 -0.6614584,-0.11906 -0.6614584,-0.26458 0,-0.14552 -0.1785854,-0.26458 -0.396875,-0.26458 -0.2182794,0 -0.396875,-0.11907 -0.396875,-0.26459 0,-0.14553 -0.1355738,-0.26458 -0.3012736,-0.26458 -0.409309,0 -3.1241088,-2.69506 -3.1321088,-3.10886 -0.0033,-0.18188 -0.104659,-0.33072 -0.225309,-0.33072 -0.22263,0 -0.98411,-1.59059 -1.74408,-3.64371 -0.817348,-2.20811 0.1069,-9.05629 1.222148,-9.05629 0.1166,0 0.211873,-0.18733 0.211873,-0.416 0,-0.22868 0.178597,-0.59407 0.396875,-0.81235 0.21829,-0.21828 0.396875,-0.5087 0.396875,-0.64544 0,-0.29895 -4.245733,-4.47621 -4.549593,-4.47621 z"
     id="path165" /><path
     style="display:inline;opacity:1;fill:#4575c0;fill-opacity:1"
     d="m 7.448641,107.12938 c -8.39129386,-0.0266 -17.0100882,0.0787 -17.654736,0.34158 -2.085976,0.85058 -2.574587,1.14989 -3.675745,2.25102 -0.657288,0.6573 -1.30683,1.45294 -1.44384,1.76837 -0.137008,0.31543 -0.460047,0.71816 -0.483691,0.97049 -0.349937,3.73459 -0.419623,17.55383 -0.02512,24.14925 0.103275,1.72661 1.15824,1.57423 1.713391,2.14216 1.382454,1.41426 2.513542,2.64179 2.513542,2.72749 0,0.0857 0.327414,0.43769 0.727604,0.78186 0.8950979,0.76983 0.696303,0.79259 2.1512898,-0.24598 2.541735,-1.81431 6.9498885,-2.54232 9.9270427,-1.63918 1.3507772,0.40978 2.0107299,0.22472 2.0107299,-0.56379 0,-0.20047 0.1190636,-0.36431 0.2645834,-0.36431 0.1455196,0 0.2662007,-0.14883 0.2682007,-0.33073 0.00195,-0.1819 0.2396637,-0.62839 0.5281331,-0.99219 0.8679982,-1.09468 2.3786662,-3.41146 2.3786662,-3.64784 0,-0.12158 0.2083614,-0.45825 0.4630208,-0.74776 1.3240174,-1.5052 1.380036,-2.07213 0.324528,-3.28455 -1.1715676,-1.34573 -1.3167155,-1.5382 -1.3167155,-1.74667 0,-0.10383 -0.1593939,-0.37694 -0.3539835,-0.60668 -2.6050848,-3.07563 -1.5468674,-11.02775 1.9171956,-14.40894 2.033006,-1.98435 2.3952628,-2.28048 2.7905278,-2.28048 0.224894,0 0.40876,-0.11906 0.40876,-0.26458 0,-0.14552 0.231211,-0.26458 0.513664,-0.26458 0.282454,0 0.587021,-0.11907 0.676961,-0.26459 0.08994,-0.14552 0.513571,-0.26458 0.941545,-0.26458 0.427972,0 0.778247,-0.11906 0.778247,-0.26458 0,-0.32904 5.60946,-0.36157 5.966561,-0.0346 0.488495,0.44724 2.235522,0.56482 2.235522,0.15038 0,-0.20914 0.105671,-0.38034 0.234611,-0.38034 0.128939,0 0.429191,-0.41111 0.66766,-0.91364 0.238466,-0.50254 0.617772,-1.09784 0.842842,-1.32291 0.264068,-0.26407 -7.899701,-0.42251 -16.290995,-0.44907 z"
     id="path161"
     sodipodi:nodetypes="ccssssssssssscssssssssssssscsssscc" /><path
     style="display:inline;opacity:1;fill:#4575c0;fill-opacity:1"
     d="m 65.851794,132.11908 c -0.860107,0.10109 -1.561203,0.59164 -1.962154,1.43919 -0.385153,0.81415 -0.950347,1.77929 -1.255737,2.14508 -1.075324,1.28808 -1.937732,2.1575 -2.140438,2.1575 -0.112697,0 -0.397171,0.21398 -0.632519,0.47542 -0.521155,0.57893 -3.210685,1.90583 -3.862814,1.90583 -0.406386,0 -0.446818,0.15527 -0.292488,1.12447 0.264297,1.65985 0.721028,5.1332 0.913122,6.94532 0.168282,1.5875 0.168468,1.58733 1.623674,1.66863 0.800363,0.0447 1.568111,0.19355 1.706356,0.33073 0.138243,0.13719 0.584729,0.2496 0.992187,0.2496 0.407459,0 0.74104,0.11906 0.74104,0.26458 0,0.14552 0.238126,0.26458 0.529167,0.26458 0.29104,0 0.529166,0.11907 0.529166,0.26459 0,0.14552 0.177158,0.26458 0.393775,0.26458 0.216618,0 0.646252,0.20836 0.95498,0.46302 1.053164,0.86872 2.619995,2.40541 2.619995,2.56987 0,0.0902 0.238127,0.41986 0.529167,0.73225 0.29104,0.3124 0.529167,0.72384 0.529167,0.91468 0,0.19084 0.119063,0.34726 0.264583,0.34726 0.14552,0 0.264583,0.18025 0.264583,0.40049 0,0.22026 0.107406,0.60721 0.238746,0.8599 1.011768,1.94612 1.008253,9.58753 -0.0041,9.58753 -0.129008,0 -0.234611,0.29766 -0.234611,0.66146 0,0.3638 -0.119063,0.66146 -0.264583,0.66146 -0.14552,0 -0.264583,0.16577 -0.264583,0.36845 0,0.59238 -3.462313,4.00213 -4.7625,4.69015 -0.654844,0.34652 -1.230482,0.71925 -1.278992,0.82837 -0.04851,0.10914 -0.368499,0.19844 -0.711584,0.19844 -0.739848,0 -1.099133,0.45581 -0.68523,0.86972 0.161945,0.16194 0.294556,1.08026 0.294556,2.0407 0,0.96044 0.109727,1.85904 0.243913,1.99729 0.134183,0.13824 0.310912,1.08511 0.39274,2.10375 0.08183,1.01865 0.21493,2.68552 0.29559,3.70417 0.08066,1.01865 0.254207,2.09021 0.385506,2.38125 0.131299,0.29104 0.304314,1.30307 0.384472,2.24896 0.08016,0.94586 0.262111,2.61275 0.404627,3.70416 0.142516,1.0914 0.367592,2.93689 0.499711,4.10104 0.13212,1.16416 0.31376,2.32503 0.40411,2.57969 0.09034,0.25467 0.222048,0.64609 0.292488,0.87023 0.319717,1.01732 11.964614,0.24937 13.571782,-0.89503 0.440838,-0.31391 0.876399,-0.57051 0.967899,-0.57051 0.69443,0 3.059245,-3.45533 3.059245,-4.47001 0,-0.24819 0.119457,-0.57112 0.265617,-0.71727 0.484258,-0.48426 0.220883,-59.76392 -0.265617,-59.78292 -0.21829,-0.008 -0.57547,-0.0853 -0.79375,-0.17104 -0.21829,-0.0857 -1.289852,-0.29192 -2.38125,-0.45786 -1.091408,-0.16594 -2.49244,-0.41634 -3.112988,-0.55655 -0.62056,-0.14022 -1.46846,-0.25477 -1.88464,-0.25477 -0.416178,0 -1.262859,-0.17859 -1.881539,-0.39687 -0.618668,-0.21828 -1.534429,-0.39688 -2.035017,-0.39688 -0.5006,0 -1.1109,-0.10322 -1.35599,-0.22892 -0.454103,-0.2329 -0.898479,-0.38376 -1.32085,-0.45579 -0.316777,-0.054 -0.621252,-0.0637 -0.907955,-0.03 z"
     id="path164" /><path
     style="display:inline;opacity:1;fill:#4575c0;fill-opacity:1"
     d="m 30.017806,125.82179 c -1.009698,-0.0893 -1.4087,0.0325 -1.4087,0.34726 0,0.30138 -0.119062,0.62169 -0.264583,0.71159 -0.145521,0.0899 -0.264583,0.39451 -0.264583,0.67696 0,0.28246 -0.119063,0.51366 -0.264584,0.51366 -0.145518,0 -0.264583,0.18833 -0.264583,0.41858 0,0.40805 -3.157939,3.81476 -3.536218,3.81476 -0.174118,0 -0.367146,0.13871 -1.301729,0.93586 -1.253098,1.06882 -6.704332,1.80254 -8.74572,1.17719 -1.816488,-0.55648 -3.085083,-1.14037 -3.085083,-1.42007 0,-0.36288 -0.843763,0.60328 -1.3012125,1.48983 -0.2064994,0.40018 -0.4743827,0.7276 -0.5953125,0.7276 -0.1209696,0 -0.2201416,0.18337 -0.2201416,0.40773 0,0.22437 -0.2381272,0.66377 -0.5291666,0.97617 -0.2910394,0.31239 -0.5291667,0.72383 -0.5291667,0.91467 0,0.19085 -0.1190637,0.34727 -0.2645833,0.34727 -0.1455198,0 -0.2645834,0.1559 -0.2645834,0.34674 0,0.19085 -0.2381272,0.6028 -0.5291666,0.91519 -0.2910394,0.3124 -0.5318511,0.66199 -0.5348511,0.77722 -0.00323,0.11522 -0.2389127,0.50745 -0.5234823,0.87126 -0.5269488,0.67366 -0.7060313,1.5875 -0.3110921,1.5875 0.1936296,0 0.8751138,0.65676 2.8907796,2.7864 0.3274194,0.34594 0.5953125,0.81328 0.5953125,1.03818 0,0.22487 0.1190636,0.40876 0.2645834,0.40876 0.1455196,0 0.2645833,0.21793 0.2645833,0.48472 0,0.26679 0.081685,0.56693 0.1813843,0.66663 0.7742136,0.77421 1.2947486,7.55503 0.6123656,7.97677 -0.1455197,0.0899 -0.2645832,0.38346 -0.2645832,0.65216 0,0.52816 -1.0642031,2.73089 -1.3890625,2.87527 -0.1091398,0.0485 -0.1984375,0.2306 -0.1984375,0.40463 0,0.17403 -0.2381273,0.48838 -0.5291667,0.69815 -0.7070986,0.50965 -0.6707047,0.73349 0.2645833,1.62729 0.4365592,0.41721 0.79375,0.80496 0.79375,0.86196 0,0.16099 1.8835006,2.00569 2.0768756,2.03399 0.09459,0.0139 0.826929,0.77405 1.627291,1.68982 1.718072,1.96578 2.103724,2.19043 2.643766,1.54099 0.219555,-0.26403 0.994257,-0.77717 1.721859,-1.1405 0.727602,-0.36334 1.362775,-0.74972 1.411283,-0.85886 0.04851,-0.10914 0.428548,-0.19844 0.844393,-0.19844 0.415848,0 0.829384,-0.11906 0.919324,-0.26458 0.09202,-0.1489 1.364559,-0.26459 2.910417,-0.26459 1.545856,0 2.818398,0.11569 2.910416,0.26459 0.08994,0.14552 0.373324,0.26458 0.629936,0.26458 1.479121,0 6.54224,3.97789 7.033679,5.52628 0.09755,0.30736 0.324383,0.55914 0.503846,0.55914 0.472782,0 1.749947,-0.62675 1.752347,-0.8599 0.0011,-0.10913 0.240192,-0.19844 0.531234,-0.19844 0.291042,0 0.529167,-0.11906 0.529167,-0.26458 0,-0.14552 0.231211,-0.26458 0.513664,-0.26458 0.282452,0 0.587021,-0.11907 0.676961,-0.26459 0.08994,-0.14553 0.394507,-0.26458 0.676961,-0.26458 0.282453,0 0.513664,-0.0909 0.513664,-0.20206 0,-0.11119 0.446486,-0.40871 0.992187,-0.66094 3.24897,-1.50175 4.697094,-2.48546 4.606954,-3.12901 -0.539454,-3.85161 0.03509,-7.99567 1.280542,-9.23716 0.07299,-0.0728 0.301204,-0.45971 0.507463,-0.85989 0.206259,-0.40018 0.474381,-0.72761 0.595312,-0.72761 0.120934,0 0.219625,-0.12923 0.219625,-0.28732 0,-0.40928 2.908909,-3.15226 3.342949,-3.15226 0.198741,0 0.361218,-0.11906 0.361218,-0.26458 0,-0.14552 0.297656,-0.26459 0.661458,-0.26459 0.363802,0 0.661458,-0.11906 0.661458,-0.26458 0,-0.14552 0.306383,-0.26458 0.680579,-0.26458 1.136327,0 1.56345,-0.64878 1.208195,-1.83452 -0.165642,-0.55286 -0.301274,-1.73564 -0.301274,-2.62826 0,-0.90558 -0.11695,-1.62264 -0.264583,-1.62264 -0.145521,0 -0.264583,-0.64504 -0.264583,-1.43351 0,-2.046 -0.136957,-2.27066 -1.386479,-2.27066 -1.727814,0 -6.286438,-1.57656 -6.286438,-2.17403 0,-0.11408 -0.139919,-0.20722 -0.311092,-0.20722 -0.464496,0 -3.657658,-3.33029 -3.657658,-3.81475 0,-0.23026 -0.119063,-0.41858 -0.264583,-0.41858 -0.145521,0 -0.264584,-0.29765 -0.264584,-0.66146 0,-0.3638 -0.119062,-0.66146 -0.264583,-0.66146 -0.145521,0 -0.264583,-0.35719 -0.264583,-0.79375 0,-0.43657 -0.113309,-0.79375 -0.252181,-0.79375 -0.138872,0 -0.287699,-0.79416 -0.330729,-1.76475 -0.07823,-1.76471 -0.07855,-1.76505 -1.930632,-2.1084 -1.018644,-0.18884 -2.447398,-0.47235 -3.175,-0.63045 -2.443488,-0.53094 -4.063895,-0.83154 -5.073592,-0.92087 z"
     id="path163" /><path
     style="display:inline;opacity:1;fill:#4575c0;fill-opacity:1"
     d="m 50.870797,107.16918 c -23.705549,0 -24.378357,0.0192 -24.378357,0.68988 0,0.20271 -0.119063,0.36845 -0.264584,0.36845 -0.145518,0 -0.264583,0.23813 -0.264583,0.52917 0,0.29104 -0.0893,0.52942 -0.198437,0.52968 -0.201968,4.8e-4 -1.653646,2.16753 -1.653646,2.46859 0,0.0907 0.654846,0.81968 1.455208,1.62005 0.800363,0.80036 1.455208,1.57731 1.455208,1.72599 0,0.14869 0.0893,0.27134 0.198438,0.27234 0.237613,0.002 0.859896,1.28367 0.859896,1.77043 0,0.18927 0.119062,0.34417 0.264583,0.34417 0.145521,0 0.264583,0.35719 0.264583,0.79375 0,0.43657 0.119063,0.79375 0.264584,0.79375 0.152226,0 0.264583,0.8199 0.264583,1.93115 0,2.32234 0.194098,2.56677 2.037602,2.56677 0.771258,0 1.401981,0.10771 1.401981,0.23977 0,0.22408 0.678692,0.33032 4.564063,0.71469 0.836743,0.0828 1.521354,0.25911 1.521354,0.39171 0,0.13259 0.476252,0.24133 1.058333,0.24133 0.999532,0 1.058334,-0.0441 1.058334,-0.79375 0,-0.43656 0.119062,-0.79375 0.264583,-0.79375 0.145521,0 0.264583,-0.1549 0.264583,-0.34417 0,-0.48676 0.622285,-1.76843 0.859896,-1.77043 0.109138,-10e-4 0.198438,-0.1292 0.198438,-0.28422 0,-0.36731 2.790636,-3.15743 3.157947,-3.15743 0.155009,0 0.282603,-0.0893 0.283703,-0.19844 0.0025,-0.23761 1.283676,-0.8599 1.770435,-0.8599 0.18927,0 0.344165,-0.1056 0.344165,-0.23461 0,-0.56723 2.554516,-0.81404 5.016748,-0.74414 1.951353,0.0554 3.845069,0.30973 4.363041,0.76016 0.138245,0.12018 0.465666,0.21859 0.727604,0.21859 0.261937,0 0.47594,0.11907 0.47594,0.26459 0,0.14552 0.183865,0.26458 0.408761,0.26458 0.224894,0 0.688808,0.26788 1.030428,0.59531 0.341617,0.32742 1.004404,0.94519 1.472778,1.37304 0.468376,0.42785 1.1641,1.26129 1.546676,1.85209 0.382573,0.5908 0.76354,1.13384 0.84646,1.20664 0.436325,0.38287 1.30948,4.04827 1.30948,5.49734 0,1.64618 2e-6,1.64641 0.79375,1.64641 0.436562,0 0.79375,0.10773 0.79375,0.23978 0,0.22753 0.645693,0.33185 4.365625,0.70538 0.87312,0.0877 1.700925,0.2683 1.839165,0.40101 0.13825,0.13272 0.882386,0.24133 1.653646,0.24133 0.771258,0 1.401981,0.11907 1.401981,0.26459 0,0.14552 0.63124,0.26458 1.402498,0.26458 0.77126,0 1.515406,0.1112 1.653646,0.24753 0.13825,0.13634 0.786933,0.29438 1.441773,0.35088 0.654848,0.0565 1.279912,0.12343 1.389062,0.14883 0.10913,0.0254 0.198438,-4.12068 0.198438,-9.21391 0,-5.99721 -0.09323,-9.26041 -0.264584,-9.26041 -0.145518,0 -0.264583,-0.28661 -0.264583,-0.63666 0,-1.1723 -2.288865,-4.65501 -3.059245,-4.65501 -0.09153,0 -0.482411,-0.21994 -0.868681,-0.48886 -1.531246,-1.06605 -2.321162,-1.09864 -26.72705,-1.09864 z"
     id="path162" /><path
     style="display:inline;opacity:1;fill:#000000"
     d="m 164.82043,106.58368 c -3.9305,-0.002 -7.95707,0.2568 -9.31313,0.77618 -0.40965,0.15689 -1.14634,0.28525 -1.63762,0.28525 -0.49126,0 -0.96689,0.11906 -1.05679,0.26458 -0.0899,0.14552 -0.62571,0.26459 -1.19062,0.26459 -0.5649,0 -1.10073,0.11905 -1.19063,0.26458 -0.0899,0.14552 -0.51408,0.26458 -0.94206,0.26458 -0.42797,0 -0.77773,0.11907 -0.77773,0.26459 0,0.14552 -0.35026,0.26458 -0.77824,0.26458 -0.42797,0 -0.85165,0.11906 -0.94155,0.26458 -0.0899,0.14552 -0.45455,0.26459 -0.80977,0.26459 -0.35521,0 -0.64544,0.11905 -0.64544,0.26458 0,0.14552 -0.15079,0.26458 -0.33486,0.26458 -0.36373,0 -3.68277,1.55965 -3.89847,1.83193 -0.0728,0.0918 -0.63829,0.38974 -1.25677,0.66249 -0.61846,0.27275 -1.12448,0.59695 -1.12448,0.72037 0,0.12342 -0.15643,0.2248 -0.34727,0.2248 -0.19084,0 -0.57778,0.20836 -0.85989,0.46302 -0.2821,0.25466 -0.84005,0.6317 -1.24024,0.83819 -0.40018,0.20649 -0.7276,0.47438 -0.7276,0.59531 0,0.12098 -0.14959,0.22014 -0.33228,0.22014 -0.18269,0 -0.83777,0.47626 -1.45572,1.05834 -0.61797,0.58209 -1.19113,1.05833 -1.27383,1.05833 -0.0827,0 -0.64799,0.54602 -1.25625,1.21336 -0.60827,0.66735 -1.71053,1.85215 -2.44895,2.63292 -0.7384,0.78078 -1.68483,1.96117 -2.10323,2.62309 -0.4184,0.66193 -0.85604,1.20355 -0.97255,1.20355 -0.11652,0 -0.21187,0.17859 -0.21187,0.39687 0,0.21828 -0.10503,0.39688 -0.23358,0.39688 -0.12854,0 -0.29954,0.20836 -0.38034,0.46302 -0.14377,0.45334 -0.97646,1.9211 -1.23817,2.18281 -0.30816,0.30815 -0.79375,1.34439 -0.79375,1.69395 0,0.20813 -0.0893,0.41814 -0.19843,0.46664 -0.10914,0.0485 -0.47961,0.68368 -0.82373,1.41128 -0.3441,0.7276 -0.7736,1.62058 -0.95446,1.98438 -0.54823,1.10279 -1.67297,4.51784 -2.13475,6.48229 -2.54404,10.82269 -1.59919,23.83272 2.38228,32.80833 0.38731,0.87312 0.84451,1.91493 1.01647,2.31511 0.17197,0.40019 0.40264,0.7276 0.51264,0.7276 0.11,0 0.19998,0.23813 0.19998,0.52917 0,0.29105 0.11907,0.52917 0.26459,0.52917 0.14552,0 0.26458,0.23812 0.26458,0.52916 0,0.29104 0.1006,0.52917 0.22324,0.52917 0.12264,0 0.50925,0.56554 0.85938,1.25677 0.35011,0.69122 0.85431,1.4949 1.12035,1.78594 0.26605,0.29104 0.67879,0.85659 0.91725,1.25677 0.23846,0.40019 0.53408,0.7276 0.65681,0.7276 0.1228,0 0.1575,0.1064 0.077,0.23668 -0.0805,0.13027 0.0311,0.30521 0.24856,0.38861 0.21745,0.0834 0.39584,0.28229 0.39584,0.44183 0,0.15953 0.59531,0.87001 1.32292,1.57872 0.72761,0.70871 1.3299,1.38519 1.3379,1.50378 0.008,0.11859 1.02697,1.04944 2.26395,2.06809 1.23697,1.01864 2.41216,2.00091 2.61172,2.18281 0.19956,0.1819 0.52381,0.33073 0.72037,0.33073 0.19656,0 0.52921,0.23813 0.73898,0.52917 0.20977,0.29105 0.47644,0.52917 0.59273,0.52917 0.11627,0 0.71509,0.32345 1.33066,0.71881 2.17802,1.39889 4.23647,2.52224 4.71238,2.57194 0.17203,0.018 2.76816,1.13803 3.48092,1.50172 0.25269,0.12893 0.75179,0.23461 1.10898,0.23461 0.35719,0 0.72297,0.11906 0.81287,0.26458 0.0899,0.14552 0.5731,0.26459 1.07383,0.26459 0.50074,0 0.91054,0.10684 0.91054,0.23771 0,0.13087 0.50601,0.29999 1.12448,0.37568 0.61847,0.0757 2.01746,0.33153 3.10886,0.56845 1.09142,0.23693 2.87734,0.53574 3.96875,0.66455 4.53077,0.53469 12.71883,-0.006 16.29047,-1.07487 0.4469,-0.13376 1.07198,-0.24287 1.38907,-0.24287 0.31709,0 0.57671,-0.11906 0.57671,-0.26459 0,-0.14552 0.2591,-0.26458 0.57619,-0.26458 0.60897,0 2.15396,-0.43632 2.92592,-0.82631 0.25269,-0.12766 0.69917,-0.23202 0.99219,-0.23202 0.29301,0 0.53278,-0.11906 0.53278,-0.26459 0,-0.14552 0.14883,-0.26616 0.33073,-0.26716 0.47562,-0.004 3.19866,-1.30226 3.39411,-1.61851 0.0906,-0.14653 0.33114,-0.29285 0.53485,-0.32505 0.20372,-0.0322 1.05747,-0.50053 1.89704,-1.04076 0.83957,-0.54022 1.61697,-0.98185 1.72754,-0.98185 0.11057,0 0.37263,-0.23812 0.5824,-0.52917 0.20977,-0.29104 0.54952,-0.52916 0.75499,-0.52916 0.20547,0 0.56615,-0.21956 0.8015,-0.48783 0.23535,-0.26826 0.56573,-0.53611 0.73432,-0.59531 0.46362,-0.16268 4.35248,-3.96653 5.20175,-5.08806 0.41013,-0.54161 1.03522,-1.27447 1.38906,-1.62833 0.83825,-0.83824 0.2506,-2.51922 -0.88056,-2.51922 -0.1237,0 -0.64792,-0.38696 -1.16531,-0.8599 -0.51738,-0.47294 -1.33337,-1.15755 -1.8128,-1.52135 -0.47943,-0.3638 -1.29943,-0.98471 -1.82263,-1.37977 -0.52321,-0.39506 -1.21516,-0.96061 -1.53738,-1.25677 -0.32222,-0.29616 -0.68391,-0.53846 -0.80408,-0.53846 -0.12016,0 -0.74986,-0.48667 -1.39888,-1.08108 -0.64902,-0.59439 -1.71555,-1.45162 -2.3704,-1.90531 -0.65484,-0.45369 -1.32367,-0.94981 -1.48621,-1.10225 -0.67405,-0.63215 -1.62275,-1.37465 -2.55075,-1.99678 -0.54266,-0.3638 -0.98758,-0.75076 -0.98857,-0.8599 -0.003,-0.28792 -0.73541,-0.24417 -0.83975,0.0501 -0.61231,1.72715 -7.1494,7.68609 -9.48055,8.64185 -0.21828,0.0895 -0.90189,0.38771 -1.51877,0.66301 -0.61688,0.27529 -1.45597,0.50074 -1.86501,0.50074 -0.40905,0 -0.89261,0.14883 -1.07435,0.33073 -0.75986,0.76052 -10.04843,0.26191 -11.28458,-0.60565 -0.14552,-0.10214 -0.74083,-0.33821 -1.32292,-0.52503 -0.58209,-0.18683 -1.50253,-0.61919 -2.04535,-0.96066 -0.54281,-0.34146 -1.04673,-0.62064 -1.11983,-0.62064 -0.51333,0 -4.90461,-4.50374 -4.90461,-5.03018 0,-0.14386 -0.11906,-0.26148 -0.26458,-0.26148 -0.14552,0 -0.26459,-0.16902 -0.26459,-0.37518 0,-0.20615 -0.0944,-0.41452 -0.20929,-0.46302 -0.374,-0.15792 -2.1422,-4.00707 -2.78122,-6.05389 -0.95875,-3.07091 -4.32689,-2.75504 30.23588,-2.83394 16.52021,-0.0377 30.20451,-0.13048 30.40951,-0.20618 0.31368,-0.1159 0.34442,-1.20703 0.19431,-6.88847 -0.25743,-9.74365 -0.72032,-13.57367 -2.39676,-19.82412 -0.44632,-1.66408 -0.52158,-1.8688 -1.43867,-3.90983 -0.31233,-0.69511 -0.56792,-1.43926 -0.56792,-1.65365 0,-0.21439 -0.11907,-0.38964 -0.26459,-0.38964 -0.14552,0 -0.26458,-0.17526 -0.26458,-0.38912 0,-0.21385 -0.23813,-0.81249 -0.52917,-1.33067 -0.29104,-0.51818 -0.52916,-1.11734 -0.52916,-1.33119 0,-0.21386 -0.10556,-0.3886 -0.2341,-0.3886 -0.12855,0 -0.29954,-0.20837 -0.38034,-0.46303 -0.16154,-0.50938 -1.01141,-1.97339 -1.2671,-2.18281 -0.0888,-0.0728 -0.34634,-0.48947 -0.57258,-0.92604 -0.22624,-0.43656 -0.65986,-1.05687 -0.96325,-1.37821 -0.30339,-0.32133 -0.55138,-0.65377 -0.55138,-0.73897 0,-0.0852 -0.43342,-0.62367 -0.96325,-1.19631 -0.52984,-0.57265 -1.1523,-1.31125 -1.38286,-1.64176 -0.61411,-0.88035 -2.09449,-2.32079 -2.38539,-2.32079 -0.13825,0 -0.29153,-0.10298 -0.34003,-0.22893 -0.32728,-0.8498 -8.75727,-5.85649 -9.8609,-5.85649 -0.22745,0 -0.41341,-0.11906 -0.41341,-0.26458 0,-0.14552 -0.35719,-0.26458 -0.79375,-0.26458 -0.43656,0 -0.79375,-0.11907 -0.79375,-0.26459 0,-0.14553 -0.47624,-0.26458 -1.05833,-0.26458 -0.58208,0 -1.05833,-0.11906 -1.05833,-0.26458 0,-0.14552 -0.42474,-0.26459 -0.94362,-0.26459 -0.51888,0 -1.17693,-0.12522 -1.46244,-0.27802 -0.97225,-0.5201 -4.80695,-0.78133 -8.73745,-0.78289 z m -2.12597,19.58227 c 2.0814,0 4.27364,0.43987 4.27364,0.85783 0,0.11006 0.35028,0.20051 0.77825,0.20051 0.42798,0 0.85164,0.11905 0.94154,0.26458 0.0899,0.14552 0.39452,0.26458 0.67697,0.26458 0.28246,0 0.51366,0.11907 0.51366,0.26459 0,0.14552 0.23813,0.26458 0.52917,0.26458 0.29104,0 0.52916,0.11078 0.52916,0.2465 0,0.13571 0.26491,0.33083 0.5886,0.43356 0.6977,0.22144 2.97357,2.48179 3.90932,3.88245 0.36381,0.54456 0.75076,0.99067 0.8599,0.99167 0.10914,9.9e-4 0.19843,0.2402 0.19843,0.53124 0,0.29104 0.0909,0.52916 0.20206,0.52916 0.74419,0 2.70815,7.46931 2.26653,8.62015 -0.27868,0.72624 -35.17213,0.54064 -35.3627,-0.1881 -0.16776,-0.64155 0.30857,-3.40896 0.65215,-3.78892 0.12501,-0.13825 0.22738,-0.4135 0.22738,-0.61185 0,-0.46564 1.62699,-3.87155 1.90479,-3.98735 0.11637,-0.0485 0.21188,-0.24237 0.21188,-0.43098 0,-0.18861 0.47624,-0.83372 1.05833,-1.43351 0.58209,-0.5998 1.05833,-1.18318 1.05833,-1.29656 0,-0.11337 0.66654,-0.67908 1.48105,-1.25677 0.81453,-0.57768 1.63922,-1.1989 1.83296,-1.3808 0.19373,-0.18189 0.53924,-0.33072 0.76791,-0.33072 0.22868,0 0.416,-0.11907 0.416,-0.26459 0,-0.14552 0.23813,-0.26458 0.52917,-0.26458 0.29105,0 0.52916,-0.11906 0.52916,-0.26458 0,-0.14552 0.29075,-0.26459 0.64596,-0.26459 0.35522,0 0.71935,-0.11906 0.80925,-0.26458 0.0899,-0.14553 0.45404,-0.26458 0.80925,-0.26458 0.35522,0 0.64596,-0.10714 0.64596,-0.23772 0,-0.36154 3.08664,-0.82062 5.51594,-0.82062 z"
     id="path160" /><path
     style="display:inline;opacity:1;fill:#000000"
     d="m 101.10494,106.37542 c -11.906224,0 -11.90625,8e-5 -11.90625,47.49271 0,47.49261 2.6e-5,47.49271 11.90625,47.49271 11.90623,0 11.90625,-1e-4 11.90625,-47.49271 0,-47.49263 -2e-5,-47.49271 -11.90625,-47.49271 z"
     id="path4" /></svg>
